<svg width="178" height="31" viewBox="0 0 178 31" fill="none" xmlns="http://www.w3.org/2000/svg">
<g clip-path="url(#clip0_271_186)">
<path d="M28.2743 12.4929C28.2791 12.5673 28.2681 12.6419 28.242 12.7118C28.2159 12.7816 28.1754 12.8452 28.1229 12.8982C28.0705 12.9512 28.0075 12.9926 27.938 13.0195C27.8684 13.0464 27.794 13.0583 27.7195 13.0544H17.0983C17.0236 13.0582 16.9488 13.0463 16.879 13.0195C16.8091 12.9926 16.7457 12.9514 16.6928 12.8985C16.6398 12.8455 16.5986 12.7821 16.5717 12.7122C16.5449 12.6424 16.533 12.5676 16.5368 12.4929V11.2897C16.533 11.215 16.5449 11.1403 16.5717 11.0704C16.5986 11.0006 16.6398 10.9371 16.6928 10.8842C16.7457 10.8313 16.8091 10.79 16.879 10.7632C16.9488 10.7363 17.0236 10.7244 17.0983 10.7283H27.7061C27.7806 10.7243 27.855 10.7362 27.9246 10.7631C27.9941 10.7901 28.0572 10.8314 28.1096 10.8844C28.162 10.9375 28.2026 11.001 28.2287 11.0709C28.2547 11.1407 28.2657 11.2153 28.2609 11.2897L28.2743 12.4929Z" fill="#E74C3D"/>
<path d="M32.9733 15.9819C32.9782 16.0569 32.967 16.1321 32.9406 16.2024C32.9141 16.2728 32.8729 16.3367 32.8197 16.3898C32.7666 16.443 32.7027 16.4842 32.6324 16.5106C32.562 16.5371 32.4868 16.5483 32.4118 16.5433H19.3308C19.2561 16.5484 19.1812 16.5373 19.1111 16.5107C19.0411 16.4842 18.9776 16.4429 18.9249 16.3896C18.8723 16.3363 18.8317 16.2723 18.806 16.202C18.7803 16.1316 18.7701 16.0565 18.7761 15.9819V14.752C18.7711 14.6779 18.7821 14.6035 18.8082 14.534C18.8344 14.4644 18.8751 14.4013 18.9276 14.3487C18.9801 14.2962 19.0433 14.2555 19.1128 14.2294C19.1824 14.2032 19.2567 14.1923 19.3308 14.1972H32.2982C32.3726 14.1924 32.4472 14.2034 32.517 14.2294C32.5869 14.2555 32.6504 14.2961 32.7035 14.3485C32.7565 14.4009 32.7979 14.464 32.8248 14.5335C32.8517 14.6031 32.8636 14.6775 32.8596 14.752L32.9733 15.9819Z" fill="#E74C3D"/>
<path d="M36.549 19.5581C36.5539 19.6331 36.5428 19.7083 36.5163 19.7786C36.4898 19.849 36.4486 19.9129 36.3955 19.966C36.3423 20.0192 36.2784 20.0604 36.2081 20.0868C36.1377 20.1133 36.0625 20.1245 35.9875 20.1196H21.7903C21.7156 20.1246 21.6406 20.1135 21.5706 20.0869C21.5005 20.0604 21.437 20.0191 21.3844 19.9658C21.3317 19.9125 21.2912 19.8485 21.2655 19.7782C21.2398 19.7078 21.2296 19.6328 21.2355 19.5581V18.3349C21.2296 18.2602 21.2398 18.1851 21.2655 18.1148C21.2912 18.0444 21.3317 17.9804 21.3844 17.9271C21.437 17.8739 21.5005 17.8325 21.5706 17.806C21.6406 17.7795 21.7156 17.7684 21.7903 17.7734H35.9875C36.0625 17.7685 36.1377 17.7796 36.2081 17.8061C36.2784 17.8326 36.3423 17.8738 36.3955 17.9269C36.4486 17.9801 36.4898 18.044 36.5163 18.1143C36.5428 18.1847 36.5539 18.2599 36.549 18.3349V19.5581Z" fill="#E74C3D"/>
<path d="M36.549 23.1407C36.5529 23.2151 36.541 23.2896 36.5141 23.3591C36.4872 23.4287 36.4459 23.4917 36.3928 23.5441C36.3398 23.5966 36.2762 23.6371 36.2064 23.6632C36.1365 23.6893 36.0619 23.7003 35.9875 23.6955H21.7903C21.7162 23.7004 21.6418 23.6894 21.5723 23.6633C21.5028 23.6372 21.4396 23.5965 21.3871 23.5439C21.3345 23.4914 21.2938 23.4282 21.2677 23.3587C21.2416 23.2891 21.2306 23.2148 21.2355 23.1407V21.9108C21.2296 21.8361 21.2398 21.7611 21.2655 21.6907C21.2912 21.6203 21.3317 21.5563 21.3844 21.5031C21.437 21.4498 21.5005 21.4085 21.5706 21.3819C21.6406 21.3554 21.7156 21.3443 21.7903 21.3493H35.9875C36.0625 21.3444 36.1377 21.3556 36.2081 21.382C36.2784 21.4085 36.3423 21.4497 36.3955 21.5029C36.4486 21.556 36.4898 21.6199 36.5163 21.6902C36.5428 21.7606 36.5539 21.8358 36.549 21.9108V23.1407Z" fill="#E74C3D"/>
<path d="M32.9732 26.6031C32.9771 26.6779 32.9652 26.7526 32.9383 26.8225C32.9115 26.8923 32.8702 26.9558 32.8173 27.0087C32.7644 27.0616 32.7009 27.1028 32.6311 27.1297C32.5612 27.1566 32.4865 27.1684 32.4118 27.1646H19.3308C19.2563 27.1685 19.1819 27.1567 19.1123 27.1297C19.0428 27.1028 18.9797 27.0615 18.9273 27.0084C18.8749 26.9554 18.8343 26.8919 18.8083 26.822C18.7822 26.7521 18.7712 26.6776 18.776 26.6031V25.3732C18.7712 25.2988 18.7822 25.2242 18.8083 25.1544C18.8343 25.0845 18.8749 25.021 18.9273 24.9679C18.9797 24.9149 19.0428 24.8736 19.1123 24.8466C19.1819 24.8197 19.2563 24.8078 19.3308 24.8118H32.2981C32.3729 24.8079 32.4476 24.8198 32.5175 24.8467C32.5873 24.8735 32.6508 24.9148 32.7037 24.9677C32.7566 25.0206 32.7978 25.0841 32.8247 25.1539C32.8515 25.2238 32.8634 25.2985 32.8596 25.3732L32.9732 26.6031Z" fill="#E74C3D"/>
<path d="M28.2743 30.1791C28.2791 30.2536 28.2681 30.3281 28.2421 30.398C28.216 30.4679 28.1754 30.5314 28.123 30.5844C28.0706 30.6375 28.0075 30.6788 27.938 30.7057C27.8684 30.7327 27.794 30.7445 27.7195 30.7406H17.0983C17.0236 30.7445 16.9489 30.7326 16.879 30.7057C16.8092 30.6788 16.7457 30.6376 16.6928 30.5847C16.6399 30.5318 16.5986 30.4683 16.5718 30.3985C16.5449 30.3286 16.533 30.2539 16.5369 30.1791V28.9492C16.5329 28.8748 16.5448 28.8003 16.5717 28.7308C16.5987 28.6612 16.64 28.5982 16.693 28.5458C16.7461 28.4934 16.8096 28.4528 16.8795 28.4267C16.9493 28.4006 17.0239 28.3896 17.0983 28.3945H27.7062C27.7803 28.3895 27.8546 28.4005 27.9242 28.4266C27.9937 28.4528 28.0568 28.4935 28.1094 28.546C28.1619 28.5986 28.2026 28.6617 28.2288 28.7312C28.2549 28.8008 28.2659 28.8751 28.2609 28.9492L28.2743 30.1791Z" fill="#E74C3D"/>
<path d="M8.15454 1.79811C8.15061 1.87257 8.1625 1.94702 8.18941 2.01656C8.21633 2.0861 8.25767 2.14916 8.31071 2.20157C8.36376 2.25398 8.4273 2.29456 8.49716 2.32064C8.56701 2.34673 8.6416 2.35772 8.71601 2.35289H19.3305C19.4052 2.35883 19.4802 2.3486 19.5506 2.32291C19.621 2.29722 19.685 2.25667 19.7382 2.20403C19.7915 2.15138 19.8328 2.08787 19.8594 2.01783C19.8859 1.94778 19.897 1.87284 19.892 1.79811V0.568217C19.8969 0.493209 19.8857 0.418019 19.8593 0.347668C19.8328 0.277317 19.7916 0.213429 19.7385 0.160277C19.6853 0.107125 19.6214 0.065933 19.5511 0.0394561C19.4807 0.0129792 19.4055 0.00182846 19.3305 0.00674704H8.71601C8.64127 0.00290616 8.56655 0.0147911 8.49669 0.0416489C8.42683 0.0685067 8.36338 0.109729 8.31046 0.162653C8.25754 0.215577 8.21631 0.279021 8.18946 0.348881C8.1626 0.418742 8.1507 0.49347 8.15454 0.568217V1.79811Z" fill="#E74C3D"/>
<path d="M3.57585 5.36729C3.57093 5.44142 3.5819 5.51574 3.60804 5.58529C3.63418 5.65483 3.67488 5.71798 3.72741 5.77052C3.77994 5.82305 3.8431 5.86375 3.91264 5.88989C3.98218 5.91603 4.05651 5.927 4.13064 5.92208H17.098C17.1724 5.9269 17.247 5.91591 17.3168 5.88983C17.3867 5.86374 17.4502 5.82316 17.5033 5.77075C17.5563 5.71834 17.5977 5.65529 17.6246 5.58575C17.6515 5.51621 17.6634 5.44175 17.6594 5.36729V4.1374C17.6633 4.06265 17.6514 3.98793 17.6245 3.91807C17.5977 3.84821 17.5565 3.78477 17.5035 3.73185C17.4506 3.67892 17.3872 3.6377 17.3173 3.61084C17.2474 3.58398 17.1727 3.57209 17.098 3.57593H4.13064C4.05618 3.572 3.98173 3.58388 3.91219 3.6108C3.84265 3.63772 3.77959 3.67906 3.72718 3.7321C3.67477 3.78514 3.63419 3.84869 3.6081 3.91854C3.58202 3.9884 3.57103 4.06299 3.57585 4.1374V5.36729Z" fill="#E74C3D"/>
<path d="M0.000170915 8.94347C-0.00475496 9.0176 0.00621624 9.09193 0.0323547 9.16147C0.0584932 9.23101 0.0991936 9.29416 0.151727 9.3467C0.20426 9.39923 0.267412 9.43993 0.336956 9.46607C0.406499 9.49221 0.480825 9.50319 0.554955 9.49826H14.7522C14.8263 9.50319 14.9006 9.49221 14.9702 9.46607C15.0397 9.43993 15.1029 9.39923 15.1554 9.3467C15.2079 9.29416 15.2486 9.23101 15.2748 9.16147C15.3009 9.09193 15.3119 9.0176 15.307 8.94347V7.71358C15.3118 7.63917 15.3008 7.56457 15.2747 7.49472C15.2486 7.42486 15.208 7.36132 15.1556 7.30827C15.1032 7.25523 15.0402 7.21389 14.9706 7.18697C14.9011 7.16006 14.8266 7.14817 14.7522 7.1521H0.554955C0.48049 7.14817 0.406037 7.16006 0.336497 7.18697C0.266956 7.21389 0.203908 7.25523 0.151497 7.30827C0.0990864 7.36132 0.0585038 7.42486 0.032421 7.49472C0.00633815 7.56457 -0.00465232 7.63917 0.000170915 7.71358V8.94347Z" fill="#E74C3D"/>
<path d="M0.000129337 12.4929C-0.0046939 12.5673 0.00629658 12.6419 0.0323794 12.7118C0.0584623 12.7816 0.0990448 12.8452 0.151456 12.8982C0.203867 12.9512 0.266915 12.9926 0.336455 13.0195C0.405996 13.0464 0.480449 13.0583 0.554913 13.0544H14.7521C14.8266 13.0583 14.9011 13.0464 14.9706 13.0195C15.0401 12.9926 15.1032 12.9512 15.1556 12.8982C15.208 12.8452 15.2486 12.7816 15.2747 12.7118C15.3008 12.6419 15.3117 12.5673 15.3069 12.4929V11.2897C15.3117 11.2153 15.3008 11.1407 15.2747 11.0709C15.2486 11.001 15.208 10.9375 15.1556 10.8844C15.1032 10.8314 15.0401 10.7901 14.9706 10.7631C14.9011 10.7362 14.8266 10.7243 14.7521 10.7283H0.554913C0.480449 10.7243 0.405996 10.7362 0.336455 10.7631C0.266915 10.7901 0.203867 10.8314 0.151456 10.8844C0.0990448 10.9375 0.0584623 11.001 0.0323794 11.0709C0.00629658 11.1407 -0.0046939 11.2153 0.000129337 11.2897V12.4929Z" fill="#E74C3D"/>
<path d="M3.57586 15.9819C3.56992 16.0565 3.58015 16.1316 3.60584 16.202C3.63153 16.2723 3.67207 16.3363 3.72472 16.3896C3.77737 16.4429 3.84088 16.4842 3.91092 16.5107C3.98097 16.5373 4.05591 16.5484 4.13064 16.5433H17.098C17.173 16.5483 17.2482 16.5371 17.3185 16.5106C17.3889 16.4842 17.4528 16.443 17.5059 16.3898C17.5591 16.3367 17.6003 16.2728 17.6267 16.2024C17.6532 16.1321 17.6644 16.0569 17.6594 15.9819V14.752C17.6634 14.6775 17.6515 14.6031 17.6246 14.5335C17.5977 14.464 17.5563 14.4009 17.5033 14.3485C17.4502 14.2961 17.3867 14.2555 17.3168 14.2294C17.247 14.2034 17.1724 14.1924 17.098 14.1972H4.13064C4.05652 14.1923 3.98218 14.2032 3.91264 14.2294C3.8431 14.2555 3.77995 14.2962 3.72741 14.3487C3.67488 14.4013 3.63418 14.4644 3.60804 14.534C3.5819 14.6035 3.57093 14.6779 3.57586 14.752V15.9819Z" fill="#E74C3D"/>
<path d="M8.15494 19.558C8.15002 19.633 8.16117 19.7082 8.18765 19.7786C8.21413 19.8489 8.25532 19.9128 8.30847 19.966C8.36162 20.0191 8.42551 20.0603 8.49586 20.0868C8.56621 20.1133 8.6414 20.1244 8.71641 20.1195H19.3309C19.4059 20.1244 19.4811 20.1133 19.5515 20.0868C19.6218 20.0603 19.6857 20.0191 19.7388 19.966C19.792 19.9128 19.8332 19.8489 19.8597 19.7786C19.8861 19.7082 19.8973 19.633 19.8924 19.558V18.3348C19.8973 18.2598 19.8861 18.1846 19.8597 18.1143C19.8332 18.0439 19.792 17.98 19.7388 17.9269C19.6857 17.8737 19.6218 17.8325 19.5515 17.8061C19.4811 17.7796 19.4059 17.7684 19.3309 17.7733H8.71641C8.6414 17.7684 8.56621 17.7796 8.49586 17.8061C8.42551 17.8325 8.36162 17.8737 8.30847 17.9269C8.25532 17.98 8.21413 18.0439 8.18765 18.1143C8.16117 18.1846 8.15002 18.2598 8.15494 18.3348V19.558Z" fill="#E74C3D"/>
<path d="M50.5191 22.3587C49.9645 22.4475 49.4027 22.4833 48.8414 22.4656C47.6888 22.5279 46.5392 22.298 45.4993 21.7972C45.129 21.5563 44.8102 21.2445 44.5612 20.8796C44.3123 20.5148 44.1381 20.1042 44.0488 19.6717C43.7906 18.234 43.6786 16.7738 43.7146 15.3136C43.6786 13.8533 43.7906 12.3932 44.0488 10.9555C44.1155 10.515 44.2806 10.0953 44.5317 9.7273C44.7828 9.35933 45.1135 9.05262 45.4993 8.82989C46.1766 8.38428 47.2906 8.16147 48.8414 8.16147C49.3653 8.14249 49.8898 8.18059 50.4055 8.2751C50.8448 8.38271 51.2917 8.45645 51.7423 8.49568V10.9555C50.626 10.8418 49.844 10.7282 49.5031 10.7282C48.8626 10.7107 48.223 10.7873 47.6048 10.9555C47.2706 11.0691 47.0433 11.5102 46.9364 12.0717C46.8191 13.1101 46.7811 14.1558 46.8227 15.1999C46.7812 16.2463 46.8191 17.2942 46.9364 18.3348C46.964 18.5571 47.0378 18.7712 47.1529 18.9634C47.268 19.1556 47.4219 19.3217 47.6048 19.4511C48.212 19.6703 48.8618 19.7458 49.5031 19.6717C50.2914 19.6509 51.0775 19.5772 51.8559 19.4511V21.9109C51.4487 22.1568 50.9923 22.3097 50.5191 22.3587Z" fill="black"/>
<path d="M55.3251 21.7971C54.9761 21.5731 54.6771 21.2793 54.4471 20.9342C54.217 20.5891 54.0608 20.2002 53.9883 19.7918C53.7726 18.3117 53.6987 16.8143 53.7677 15.3201C53.7539 13.8265 53.8275 12.3334 53.9883 10.8484C54.0305 10.4304 54.1744 10.0291 54.4074 9.67957C54.6405 9.33003 54.9555 9.04285 55.3251 8.84311C55.9935 8.39527 57.2234 8.28833 58.9011 8.28833C60.1188 8.22204 61.3368 8.411 62.4772 8.84311C62.8262 9.06713 63.1251 9.36091 63.3552 9.706C63.5853 10.0511 63.7415 10.44 63.814 10.8484C64.0337 12.3281 64.1076 13.8259 64.0346 15.3201C64.0519 16.8138 63.9782 18.3071 63.814 19.7918C63.7492 20.2028 63.5961 20.5948 63.3654 20.941C63.1346 21.2871 62.8316 21.5792 62.4772 21.7971C61.6951 22.2449 60.5789 22.3585 58.9011 22.3585C57.2234 22.4655 55.8866 22.2449 55.3251 21.7971ZM60.3516 19.5579C60.5005 19.4383 60.6187 19.285 60.6966 19.1106C60.7745 18.9363 60.8097 18.7459 60.7994 18.5552C60.9157 17.4788 60.9537 16.3953 60.9131 15.3134C60.9537 14.2315 60.9157 13.148 60.7994 12.0716C60.6925 11.5101 60.5789 11.1759 60.3516 11.0689C59.4084 10.7657 58.3939 10.7657 57.4507 11.0689C57.3018 11.1885 57.1836 11.3419 57.1057 11.5162C57.0278 11.6905 56.9926 11.8809 57.0028 12.0716C56.8865 13.148 56.8486 14.2315 56.8892 15.3134C56.8486 16.3953 56.8865 17.4788 57.0028 18.5552C57.1098 19.1167 57.2234 19.4509 57.4507 19.5579C57.9148 19.727 58.4075 19.8041 58.9011 19.7851C59.3964 19.8507 59.9001 19.7718 60.3516 19.5579Z" fill="black"/>
<path d="M73.4327 22.2451L69.4222 14.311H69.3085V22.2451H66.2939V8.38208H69.4222L73.2188 15.6478H73.3324V8.38208H76.3537V22.2451H73.4327Z" fill="black"/>
<path d="M81.0324 22.2449V11.1559H77.7905V8.48218H87.4024V11.1559H84.1606V22.2249L81.0324 22.2449Z" fill="black"/>
<path d="M88.8599 22.2451V8.38208H97.1282V10.9555H91.8744V13.8631H96.3462V16.4298H91.8744V19.558H97.1282V22.1315H88.8599V22.2451Z" fill="black"/>
<path d="M106.519 22.2451L102.509 14.311H102.395V22.2451H99.3604V8.38208H102.495L106.292 15.6478H106.405V8.38208H109.42V22.2451H106.519Z" fill="black"/>
<path d="M114.226 22.2449V11.1559H110.991V8.48218H120.616V11.1559H117.375V22.2249L114.226 22.2449Z" fill="black"/>
<path d="M122.053 22.1313V19.6716C123.731 19.7852 124.847 19.8988 125.629 19.8988C126.078 19.9274 126.529 19.8891 126.966 19.7852C127.3 19.6716 127.521 19.6716 127.634 19.5579C127.704 19.5067 127.76 19.4403 127.799 19.3638C127.839 19.2873 127.86 19.2028 127.862 19.1168V18.3347C127.862 17.8869 127.862 17.546 127.748 17.439C127.663 17.2718 127.55 17.1204 127.414 16.9912C127.142 16.8354 126.832 16.7568 126.518 16.7639L124.279 16.4297C123.854 16.4037 123.442 16.2789 123.074 16.0654C122.706 15.8519 122.393 15.5555 122.16 15.1998C121.704 14.3435 121.508 13.372 121.599 12.4058C121.578 11.4833 121.77 10.5685 122.16 9.73216C122.517 9.14745 123.072 8.71081 123.724 8.50227C124.558 8.26063 125.423 8.14792 126.291 8.16806C127.61 8.15814 128.925 8.30853 130.208 8.6159V11.0757C128.978 10.9621 127.969 10.8484 126.966 10.8484C126.323 10.8117 125.678 10.8887 125.061 11.0757C124.84 11.1826 124.84 11.2963 124.727 11.5168C124.631 11.7681 124.595 12.0379 124.62 12.3056C124.585 12.5711 124.622 12.8412 124.727 13.0876C124.84 13.1946 124.84 13.3082 124.954 13.4218C125.068 13.5355 125.288 13.5288 125.736 13.6424L128.082 13.9766C128.551 14.0435 129.004 14.1953 129.419 14.4245C129.797 14.6797 130.103 15.0271 130.308 15.4338C130.617 16.2536 130.769 17.1244 130.756 18.0005C130.802 18.9999 130.612 19.996 130.201 20.9081C129.893 21.515 129.375 21.9898 128.744 22.245C127.949 22.4964 127.117 22.6094 126.284 22.5792C124.627 22.4655 123.169 22.245 122.053 22.1313Z" fill="black"/>
<path d="M135.021 22.2449V11.1559H131.779V8.48218H141.391V11.1559H138.149V22.2249L135.021 22.2449Z" fill="black"/>
<path d="M149.773 22.2451L149.104 19.4511H144.967L144.298 22.2451H141.164L144.853 8.38208H149.211L152.901 22.2451H149.773ZM146.979 11.2897L145.528 16.8777H148.322L146.979 11.2897Z" fill="black"/>
<path d="M160.721 22.3586C160.167 22.4474 159.605 22.4832 159.043 22.4656C157.891 22.5278 156.741 22.2979 155.701 21.7971C155.316 21.5744 154.985 21.2677 154.734 20.8997C154.483 20.5318 154.318 20.112 154.251 19.6716C153.993 18.2339 153.881 16.7737 153.917 15.3135C153.881 13.8532 153.993 12.3931 154.251 10.9554C154.318 10.5149 154.483 10.0952 154.734 9.72721C154.985 9.35925 155.316 9.05253 155.701 8.82981C156.374 8.38419 157.488 8.16139 159.043 8.16139C159.567 8.14262 160.092 8.18072 160.608 8.27502C161.047 8.38262 161.494 8.45637 161.944 8.4956V10.9554C160.828 10.8417 160.039 10.7281 159.705 10.7281C159.065 10.7106 158.425 10.7872 157.807 10.9554C157.623 11.0832 157.468 11.2489 157.352 11.4414C157.237 11.6339 157.164 11.8487 157.139 12.0716C157.021 13.11 156.983 14.1557 157.025 15.1998C156.983 16.2462 157.021 17.2942 157.139 18.3347C157.166 18.557 157.24 18.7711 157.355 18.9633C157.47 19.1555 157.624 19.3216 157.807 19.451C158.414 19.6702 159.064 19.7457 159.705 19.6716C160.491 19.6512 161.275 19.5775 162.051 19.451V21.9108C161.639 22.14 161.188 22.2918 160.721 22.3586Z" fill="black"/>
<path d="M171.122 22.2451L167.994 16.5435H167.098V22.2451H163.97V8.38208H167.098V13.8631H167.994L171.122 8.38208H174.464L170.453 14.9794L174.464 22.1315L171.122 22.2451Z" fill="black"/>
<path d="M177.525 11.0556C177.229 11.3427 176.832 11.5032 176.419 11.5032C176.006 11.5032 175.61 11.3427 175.313 11.0556C175.167 10.9052 175.053 10.7276 174.976 10.5329C174.899 10.3382 174.862 10.1303 174.865 9.92101C174.869 9.71176 174.914 9.5053 174.998 9.31346C175.081 9.12162 175.202 8.94817 175.353 8.80305C175.643 8.52807 176.029 8.37703 176.429 8.38195C176.737 8.38629 177.037 8.48098 177.291 8.65428C177.546 8.82758 177.744 9.07184 177.86 9.3567C177.977 9.64155 178.008 9.95445 177.948 10.2565C177.889 10.5585 177.742 10.8364 177.525 11.0556ZM175.52 9.05037C175.278 9.29346 175.141 9.62277 175.141 9.9661C175.141 10.3094 175.278 10.6387 175.52 10.8818C175.639 11.0045 175.781 11.1015 175.939 11.1671C176.096 11.2326 176.265 11.2652 176.436 11.2628C176.605 11.2655 176.774 11.2329 176.93 11.1674C177.087 11.1018 177.228 11.0046 177.345 10.8818C177.587 10.6387 177.723 10.3094 177.723 9.9661C177.723 9.62277 177.587 9.29346 177.345 9.05037C177.225 8.92769 177.082 8.83017 176.925 8.7636C176.767 8.69702 176.597 8.66273 176.426 8.66273C176.254 8.66273 176.085 8.69702 175.927 8.7636C175.769 8.83017 175.626 8.92769 175.507 9.05037H175.52ZM175.754 10.8284V9.09716H176.596C176.715 9.10238 176.832 9.13437 176.937 9.19073C177.012 9.22957 177.074 9.28946 177.116 9.36307C177.157 9.43668 177.177 9.5208 177.171 9.60515C177.176 9.66319 177.168 9.72158 177.147 9.77597C177.126 9.83036 177.093 9.87934 177.051 9.91931C176.963 9.98439 176.859 10.0237 176.75 10.0329C176.838 10.0521 176.921 10.086 176.997 10.1332C177.049 10.1828 177.089 10.2433 177.115 10.3104C177.14 10.3775 177.15 10.4494 177.144 10.5209V10.6813C177.144 10.6813 177.144 10.7147 177.144 10.7281C177.141 10.7458 177.141 10.7639 177.144 10.7816V10.8284H176.763C176.757 10.7483 176.757 10.6678 176.763 10.5877C176.771 10.5166 176.771 10.445 176.763 10.3738C176.752 10.3453 176.734 10.3195 176.713 10.2977C176.691 10.2759 176.665 10.2586 176.636 10.2468C176.585 10.2409 176.534 10.2409 176.483 10.2468H176.282V10.8618L175.754 10.8284ZM176.583 9.43805C176.5 9.4075 176.411 9.39386 176.322 9.39794H176.209V9.90595H176.389C176.476 9.90903 176.562 9.88573 176.636 9.8391C176.668 9.81506 176.692 9.78332 176.707 9.74699C176.722 9.71067 176.728 9.671 176.723 9.63189C176.731 9.58238 176.719 9.53174 176.691 9.49061C176.662 9.44948 176.619 9.42106 176.569 9.41131L176.583 9.43805Z" fill="black"/>
</g>
<defs>
<clipPath id="clip0_271_186">
<rect width="178" height="30.7406" fill="white"/>
</clipPath>
</defs>
</svg>
